# xmcd
#
# Track frame offsets: 
#        150
#        2879
#        16248
#        31843
#        52519
#        85467
#        97695
#        110215
#        126086
#        154055
#        180510
#        192558
#
# Disc length: 2823 seconds
#
# Revision: 1
# Processed by: cddbd v1.5.2PL0 Copyright (c) Steve Scherf et al.
# Submitted via: ExactAudioCopy v0.99pb4
#
DISCID=8a0b050c
DTITLE=Otis Redding - Good To Me
DYEAR=1993
DGENRE=Soul
TTITLE0=Introduction
TTITLE1=I'm Depending On You
TTITLE2=Your One And Only Man
TTITLE3=Good To Me
TTITLE4=Chained And Bound
TTITLE5=Ol' Man Trouble
TTITLE6=Pain In My Heart
TTITLE7=These Arms Of Mine
TTITLE8=I Can't Turn You Loose
TTITLE9=I've Been Loving You Too Long
TTITLE10=Security
TTITLE11=A Hard Day's Night
EXTD=Otis Redding  'Good To Me - Recorded Live At The Whiskey A Go Go,
EXTD=Vol. 2'\nSunset Strip, Los Angeles, California 1966\nLabel: Stax
EXTD=Records (Fantasy Inc.]\nSCD24 8597-2\n24 BIT Remastered With 4 B
EXTD=onus Tracks (Tracks 1, 2, 7 and 8)
EXTT0=
EXTT1=
EXTT2=
EXTT3=
EXTT4=
EXTT5=
EXTT6=
EXTT7=
EXTT8=
EXTT9=
EXTT10=
EXTT11=
PLAYORDER=
